<svg width="100%" height="100%" viewBox="0 0 14 14" fill="none" xmlns="http://www.w3.org/2000/svg">
<path d="M10 7C10 7.39397 9.9224 7.78407 9.77164 8.14805C9.62087 8.51203 9.3999 8.84274 9.12132 9.12132C8.84274 9.3999 8.51203 9.62087 8.14805 9.77164C7.78407 9.9224 7.39397 10 7 10C6.60603 10 6.21593 9.9224 5.85195 9.77164C5.48797 9.62087 5.15726 9.3999 4.87868 9.12132C4.6001 8.84274 4.37913 8.51203 4.22836 8.14805C4.0776 7.78407 4 7.39397 4 7C4 6.20435 4.31607 5.44129 4.87868 4.87868C5.44129 4.31607 6.20435 4 7 4C7.79565 4 8.55871 4.31607 9.12132 4.87868C9.68393 5.44129 10 6.20435 10 7V7ZM14 3V0H11C11 0.795649 11.3161 1.55871 11.8787 2.12132C12.4413 2.68393 13.2044 3 14 3V3ZM0 11V14H3C3 13.2044 2.68393 12.4413 2.12132 11.8787C1.55871 11.3161 0.795649 11 0 11H0ZM3 0H0V3C0.795649 3 1.55871 2.68393 2.12132 2.12132C2.68393 1.55871 3 0.795649 3 0ZM14 11C13.2044 11 12.4413 11.3161 11.8787 11.8787C11.3161 12.4413 11 13.2044 11 14H14V11Z" fill="#044BD9"/>
</svg>
