<svg width="64" height="64" viewBox="0 0 64 64" fill="none" xmlns="http://www.w3.org/2000/svg">
<path d="M31.584 20C24.968 20 19.7493 25.384 19.7493 32C19.7493 38.616 25.216 44 31.832 44C34.2533 44 36.6293 43.28 38.624 41.9253C39.232 41.512 39.4107 40.6827 38.9947 40.0747C38.5813 39.464 37.7627 39.3093 37.152 39.7227C35.6053 40.7787 33.7973 41.3333 31.912 41.3333C26.7653 41.3333 22.5813 37.1467 22.5813 32C22.5813 26.8533 26.4373 22.6667 31.584 22.6667C36.7307 22.6667 40.584 26.8533 40.584 32V32.6667C40.584 33.7707 39.688 34.6667 38.584 34.6667C37.48 34.6667 36.584 33.7707 36.584 32.6667V28C36.584 27.264 36.32 26.6667 35.584 26.6667C35.0373 26.6667 34.736 26.9973 34.528 27.4693C33.72 26.968 32.8533 26.6667 31.8347 26.6667C28.8907 26.6667 26.544 29.056 26.544 32C26.544 34.944 28.9547 37.3333 31.8987 37.3333C33.3973 37.3333 34.76 36.7067 35.7333 35.7093C36.584 36.6933 37.504 37.3333 38.912 37.3333C41.4853 37.3333 43.2507 35.24 43.2507 32.6667V32C43.2507 25.384 38.2 20 31.584 20V20ZM31.9173 34.6667C30.448 34.6667 29.2507 33.4693 29.2507 32C29.2507 30.5307 30.448 29.3333 31.9173 29.3333C33.3867 29.3333 34.584 30.5307 34.584 32C34.584 33.4693 33.3867 34.6667 31.9173 34.6667ZM32 56C18.7653 56 8 45.2347 8 32C8 18.7653 18.7653 8 32 8C45.2347 8 56 18.7653 56 32C56 45.2347 45.2347 56 32 56ZM32 13.3333C21.7093 13.3333 13.3333 21.7093 13.3333 32C13.3333 42.2907 21.7093 50.6667 32 50.6667C42.2907 50.6667 50.6667 42.2907 50.6667 32C50.6667 21.7093 42.2907 13.3333 32 13.3333Z" fill="white"/>
</svg>
