<svg width="240" height="240" viewBox="0 0 240 240" fill="none" xmlns="http://www.w3.org/2000/svg">
<circle cx="122.439" cy="117.561" r="78.0488" fill="white"/>
<path d="M220 117.561C220 171.442 176.32 215.122 122.439 215.122C68.5576 215.122 24.8781 171.442 24.8781 117.561C24.8781 63.6795 68.5576 20 122.439 20C176.32 20 220 63.6795 220 117.561ZM54.1463 117.561C54.1463 155.278 84.722 185.854 122.439 185.854C160.156 185.854 190.732 155.278 190.732 117.561C190.732 79.844 160.156 49.2683 122.439 49.2683C84.722 49.2683 54.1463 79.844 54.1463 117.561Z" fill="#0E385A"/>
<path d="M33.7972 205.782L42.5443 173.137L66.4418 197.035L33.7972 205.782Z" fill="#0E385A"/>
<path d="M177.961 173.083L165.719 169.803L174.681 160.841L177.961 173.083Z" fill="white"/>
<path d="M106.561 88.3709C119.59 87.2573 132.418 84.1667 145.5 83.6953C149.706 83.5328 153.917 83.7239 158.091 84.2668C153.288 79.1245 147.429 75.0821 140.917 72.4166C134.405 69.7512 127.394 68.5258 120.364 68.8245C113.334 69.1232 106.452 70.939 100.189 74.1473C93.927 77.3555 88.4325 81.8804 84.0826 87.4116C91.3975 88.9256 99.1086 89.0091 106.561 88.3709Z" fill="#0E385A"/>
<path d="M89.6127 100.208C99.8552 101.242 109.631 104.825 119.515 107.716C129.399 110.606 139.8 112.812 149.959 111.052C156.944 109.83 163.8 106.335 168.384 101.063C166.13 94.8226 162.628 89.1075 158.091 84.2667C153.912 83.723 149.695 83.5318 145.484 83.6953C132.414 84.1666 119.573 87.2573 106.545 88.3709C99.092 89.009 91.3809 88.9256 84.0827 87.4116C80.956 91.3842 78.467 95.8195 76.7052 100.558C80.9729 99.8672 85.3138 99.7494 89.6127 100.208Z" fill="#356084"/>
<path d="M152.903 127.961C140.571 127.018 128.765 122.539 116.495 121C102.224 119.271 87.7527 121.524 74.6825 127.511C75.6623 132.26 77.3493 136.835 79.687 141.083C83.5863 139.464 87.5149 137.946 91.5101 137.133C102.324 134.922 113.476 137.967 123.889 141.625C134.303 145.283 144.741 149.583 155.772 149.967C156.804 150.006 157.841 150.006 158.883 149.967C164.911 143.203 168.929 134.889 170.485 125.963C164.812 127.775 158.838 128.453 152.903 127.961V127.961Z" fill="#356084"/>
<path d="M97.7407 159.622C104.477 163.577 112.064 165.857 119.864 166.272C127.665 166.688 135.45 165.225 142.569 162.008C133.281 160.265 123.939 157.445 114.523 157.207C108.833 157.075 103.162 157.891 97.7407 159.622Z" fill="#0E385A"/>
<path d="M158.925 149.95C157.882 150 156.845 150 155.814 149.95C144.787 149.533 134.345 145.237 123.931 141.608C113.518 137.979 102.349 134.935 91.5352 137.133C87.5399 137.967 83.6114 139.464 79.712 141.083C83.9561 148.764 90.1818 155.166 97.7408 159.622C103.162 157.891 108.833 157.075 114.523 157.207C123.939 157.445 133.289 160.265 142.569 162.008C148.804 159.177 154.376 155.069 158.925 149.95V149.95Z" fill="#204C70"/>
<path d="M168.363 101.038C163.775 106.31 156.923 109.797 149.938 111.027C139.799 112.804 129.398 110.589 119.494 107.691C109.589 104.792 99.8343 101.226 89.5917 100.183C85.2983 99.7259 80.9632 99.8437 76.7009 100.533C73.5128 109.159 72.8134 118.507 74.6825 127.511C87.7489 121.527 102.215 119.273 116.483 121C128.752 122.539 140.558 127.018 152.89 127.961C158.834 128.457 164.817 127.778 170.498 125.963C170.978 123.187 171.219 120.376 171.219 117.559C171.229 111.928 170.263 106.338 168.363 101.038Z" fill="#FFE464"/>
</svg>
