<svg width="420" height="420" viewBox="0 0 420 420" fill="none" xmlns="http://www.w3.org/2000/svg">
<mask id="path-1-outside-1" maskUnits="userSpaceOnUse" x="56" y="0" width="364" height="220" fill="black">
<rect fill="white" x="56" width="364" height="220"/>
<path d="M410 210C410 170.169 398.107 131.245 375.844 98.2159C353.582 65.187 321.964 39.5577 285.043 24.6125C248.122 9.66717 207.579 6.08662 168.61 14.3296C129.641 22.5726 94.0213 42.2637 66.3146 70.8795L210 210H410Z"/>
</mask>
<path d="M410 210C410 170.169 398.107 131.245 375.844 98.2159C353.582 65.187 321.964 39.5577 285.043 24.6125C248.122 9.66717 207.579 6.08662 168.61 14.3296C129.641 22.5726 94.0213 42.2637 66.3146 70.8795L210 210H410Z" stroke="white" stroke-width="20" stroke-linejoin="round" mask="url(#path-1-outside-1)"/>
<circle cx="210" cy="210" r="200" fill="#556DA1"/>
<circle cx="210" cy="210" r="205" stroke="#F2CF66" stroke-width="10" stroke-linecap="round" stroke-linejoin="round"/>
<path fill-rule="evenodd" clip-rule="evenodd" d="M139.54 397.235L104.551 198.803L281.817 167.547L318.888 377.788C287.555 398.163 250.16 410 210 410C185.2 410 161.455 405.486 139.54 397.235Z" fill="#10224B"/>
<path d="M330 91C330 102.046 321.046 111 310 111C298.954 111 290 102.046 290 91C290 79.9543 298.954 71 310 71C321.046 71 330 79.9543 330 91Z" fill="white"/>
<circle cx="280" cy="61" r="10" fill="white"/>
<mask id="path-7-outside-2" maskUnits="userSpaceOnUse" x="77.4144" y="83.0444" width="143.058" height="216.063" fill="black">
<rect fill="white" x="77.4144" y="83.0444" width="143.058" height="216.063"/>
<path d="M177.632 94.629C165.992 96.6813 154.871 101.006 144.903 107.356C134.935 113.707 126.315 121.958 119.536 131.64C112.757 141.321 107.951 152.243 105.393 163.782C102.835 175.321 102.575 187.251 104.627 198.89C106.68 210.529 111.004 221.651 117.355 231.619C123.705 241.587 131.957 250.206 141.638 256.985C151.32 263.764 162.242 268.57 173.78 271.128C185.319 273.686 197.249 273.947 208.888 271.894L193.26 183.262L177.632 94.629Z"/>
</mask>
<path d="M177.632 94.629C165.992 96.6813 154.871 101.006 144.903 107.356C134.935 113.707 126.315 121.958 119.536 131.64C112.757 141.321 107.951 152.243 105.393 163.782C102.835 175.321 102.575 187.251 104.627 198.89C106.68 210.529 111.004 221.651 117.355 231.619C123.705 241.587 131.957 250.206 141.638 256.985C151.32 263.764 162.242 268.57 173.78 271.128C185.319 273.686 197.249 273.947 208.888 271.894L193.26 183.262L177.632 94.629Z" stroke="white" stroke-width="20" stroke-linecap="round" stroke-linejoin="round" mask="url(#path-7-outside-2)"/>
<path d="M281.817 167.547C279.764 155.907 275.439 144.786 269.089 134.818C262.739 124.85 254.487 116.23 244.806 109.451C235.124 102.672 224.202 97.8664 212.663 95.3083C201.125 92.7502 189.195 92.4899 177.556 94.5423C165.916 96.5946 154.795 100.919 144.827 107.27C134.859 113.62 126.239 121.872 119.46 131.553C112.681 141.235 107.875 152.157 105.317 163.695C102.759 175.234 102.499 187.164 104.551 198.803L193.184 183.175L281.817 167.547Z" fill="#10224B"/>
<rect x="104.551" y="198.803" width="180" height="200" transform="rotate(-10 104.551 198.803)" fill="#10224B"/>
<circle cx="193.184" cy="183.175" r="40" transform="rotate(-10 193.184 183.175)" fill="#FBFBFC"/>
<rect x="254.734" y="271.62" width="40" height="25" rx="12.5" transform="rotate(170 254.734 271.62)" fill="white"/>
<path d="M217.481 266L119 283.365" stroke="white" stroke-width="10" stroke-linecap="round" stroke-linejoin="round"/>
<path d="M304.9 161.512L317.924 235.372L290.841 240.148C285.402 241.107 280.216 237.475 279.257 232.036L269.706 177.872C268.747 172.433 272.379 167.246 277.818 166.287L304.9 161.512Z" fill="#F2CF66"/>
<circle cx="311.412" cy="198.442" r="37.5" transform="rotate(80 311.412 198.442)" fill="#F2CF66"/>
</svg>
